<!DOCTYPE svg PUBLIC "-//W3C//DTD SVG 1.1//EN" "http://www.w3.org/Graphics/SVG/1.1/DTD/svg11.dtd"> <svg width="521px" height="521px" version="1.1" baseProfile="full" xmlns="http://www.w3.org/2000/svg" xmlns:xlink="http://www.w3.org/1999/xlink" xmlns:ev="http://www.w3.org/2001/xml-events"><polygon fill="rgb(228,119,25)" stroke="rgb(228,119,25)" points="107.85111655294895,311.4754149913788 59.31562829017639,298.67641282081604 33.470294803380966,246.77376973628998"></polygon><polygon fill="rgb(228,119,25)" stroke="rgb(228,119,25)" points="33.470294803380966,246.77376973628998 70.37013384699821,278.3054383993149 107.85111655294895,311.4754149913788"></polygon><polygon fill="rgb(247,132,25)" stroke="rgb(247,132,25)" points="74.16263511776924,231.90314608812332 33.470294803380966,246.77376973628998 41.51303207874298,198.0267159640789"></polygon><polygon fill="rgb(247,132,25)" stroke="rgb(247,132,25)" points="70.37013384699821,278.3054383993149 33.470294803380966,246.77376973628998 74.16263511776924,231.90314608812332"></polygon><polygon fill="rgb(228,119,25)" stroke="rgb(228,119,25)" points="336.7095662653446,286.93385124206543 310.09309697151184,337.3936114311218 228.1123240739107,330.32509088516235"></polygon><polygon fill="rgb(205,98,0)" stroke="rgb(205,98,0)" points="107.85111655294895,311.4754149913788 70.37013384699821,278.3054383993149 100.82784217596054,290.73722219467163"></polygon><polygon fill="rgb(225,119,25)" stroke="rgb(225,119,25)" points="130.17398008704185,82.79566025733948 157.18101765960455,81.87773895263672 229.77578775584698,85.78595995903015"></polygon><polygon fill="rgb(119,57,0)" stroke="rgb(119,57,0)" points="41.51303207874298,198.0267159640789 25.668039917945862,183.2817956507206 31.371099144220352,178.3240937590599"></polygon><polygon fill="rgb(119,57,0)" stroke="rgb(119,57,0)" points="31.371099144220352,178.3240937590599 83.21062195301056,169.96847587823868 41.51303207874298,198.0267159640789"></polygon><polygon fill="rgb(119,57,0)" stroke="rgb(119,57,0)" points="41.51303207874298,198.0267159640789 83.21062195301056,169.96847587823868 102.12598270177841,184.81057825684547"></polygon><polygon fill="rgb(119,57,0)" stroke="rgb(119,57,0)" points="31.371099144220352,178.3240937590599 27.433258056640625,163.71710908412933 83.21062195301056,169.96847587823868"></polygon><polygon fill="rgb(119,57,0)" stroke="rgb(119,57,0)" points="83.21062195301056,169.96847587823868 27.433258056640625,163.71710908412933 22.71117901802063,151.42611837387085"></polygon><polygon fill="rgb(247,132,25)" stroke="rgb(247,132,25)" points="41.51303207874298,198.0267159640789 102.12598270177841,184.81057825684547 74.16263511776924,231.90314608812332"></polygon><polygon fill="rgb(119,57,0)" stroke="rgb(119,57,0)" points="31.371099144220352,178.3240937590599 20.466698825359344,170.38265365362167 27.433258056640625,163.71710908412933"></polygon><polygon fill="rgb(225,119,25)" stroke="rgb(225,119,25)" points="229.77578775584698,85.78595995903015 225.55811085551977,88.03004050254822 130.17398008704185,82.79566025733948"></polygon><polygon fill="rgb(225,119,25)" stroke="rgb(225,119,25)" points="280.02183002233505,134.80424773693085 225.55811085551977,88.03004050254822 229.77578775584698,85.78595995903015"></polygon><polygon fill="rgb(214,194,178)" stroke="rgb(214,194,178)" points="107.85111655294895,311.4754149913788 110.44220650196075,359.17089343070984 110.13554999232292,376.23174691200256"></polygon><polygon fill="rgb(119,57,0)" stroke="rgb(119,57,0)" points="70.08884131908417,121.65830898284912 83.21062195301056,169.96847587823868 22.71117901802063,151.42611837387085"></polygon><polygon fill="rgb(119,57,0)" stroke="rgb(119,57,0)" points="102.12598270177841,184.81057825684547 83.21062195301056,169.96847587823868 70.08884131908417,121.65830898284912"></polygon><polygon fill="rgb(119,57,0)" stroke="rgb(119,57,0)" points="16.480451673269272,157.17122161388397 22.71117901802063,151.42611837387085 27.433258056640625,163.71710908412933"></polygon><polygon fill="rgb(228,119,25)" stroke="rgb(228,119,25)" points="228.1123240739107,330.32509088516235 256.78293865919113,305.23121309280396 336.7095662653446,286.93385124206543"></polygon><polygon fill="rgb(205,98,0)" stroke="rgb(205,98,0)" points="228.1123240739107,330.32509088516235 212.93753422051668,307.33076763153076 256.78293865919113,305.23121309280396"></polygon><polygon fill="rgb(247,132,25)" stroke="rgb(247,132,25)" points="74.16263511776924,231.90314608812332 100.82784217596054,290.73722219467163 70.37013384699821,278.3054383993149"></polygon><polygon fill="rgb(192,172,157)" stroke="rgb(192,172,157)" points="161.95013450086117,383.6672852039337 228.1123240739107,330.32509088516235 207.80791630968451,347.3837070465088"></polygon><polygon fill="rgb(119,57,0)" stroke="rgb(119,57,0)" points="70.08884131908417,121.65830898284912 140.83955651521683,161.3337158560753 102.12598270177841,184.81057825684547"></polygon><polygon fill="rgb(119,57,0)" stroke="rgb(119,57,0)" points="22.71117901802063,151.42611837387085 1.2569876313209534,108.64329600334167 70.08884131908417,121.65830898284912"></polygon><polygon fill="rgb(225,119,25)" stroke="rgb(225,119,25)" points="333.38086983561516,215.19715404510498 327.7277424931526,208.30741542577744 280.02183002233505,134.80424773693085"></polygon><polygon fill="rgb(228,119,25)" stroke="rgb(228,119,25)" points="102.12598270177841,184.81057825684547 140.83955651521683,161.3337158560753 135.61117635667324,251.28651702404022"></polygon><polygon fill="rgb(228,119,25)" stroke="rgb(228,119,25)" points="135.61117635667324,251.28651702404022 74.16263511776924,231.90314608812332 102.12598270177841,184.81057825684547"></polygon><polygon fill="rgb(247,132,25)" stroke="rgb(247,132,25)" points="250.66206477582455,253.66985553503036 315.96367567777634,228.13356748223305 336.7095662653446,286.93385124206543"></polygon><polygon fill="rgb(247,132,25)" stroke="rgb(247,132,25)" points="250.66206477582455,253.66985553503036 336.7095662653446,286.93385124206543 256.78293865919113,305.23121309280396"></polygon><polygon fill="rgb(214,194,178)" stroke="rgb(214,194,178)" points="156.27113180607557,384.77804160118103 228.1123240739107,330.32509088516235 161.95013450086117,383.6672852039337"></polygon><polygon fill="rgb(214,194,178)" stroke="rgb(214,194,178)" points="228.1123240739107,330.32509088516235 156.27113180607557,384.77804160118103 151.63080848753452,366.48877787590027"></polygon><polygon fill="rgb(228,119,25)" stroke="rgb(228,119,25)" points="151.63080848753452,366.48877787590027 212.93753422051668,307.33076763153076 228.1123240739107,330.32509088516235"></polygon><polygon fill="rgb(192,172,157)" stroke="rgb(192,172,157)" points="207.80791630968451,347.3837070465088 158.91828179359436,393.26401376724243 161.95013450086117,383.6672852039337"></polygon><polygon fill="rgb(228,116,36)" stroke="rgb(228,116,36)" points="74.16263511776924,231.90314608812332 99.33086970448494,265.1928162574768 100.82784217596054,290.73722219467163"></polygon><polygon fill="rgb(247,132,25)" stroke="rgb(247,132,25)" points="100.82784217596054,290.73722219467163 99.33086970448494,265.1928162574768 129.09060968458652,284.20391964912415"></polygon><polygon fill="rgb(119,57,0)" stroke="rgb(119,57,0)" points="315.96367567777634,228.13356748223305 245.77264869213104,199.30087879300117 276.2503474652767,188.3228361904621"></polygon><polygon fill="rgb(119,57,0)" stroke="rgb(119,57,0)" points="327.7277424931526,208.30741542577744 315.96367567777634,228.13356748223305 276.2503474652767,188.3228361904621"></polygon><polygon fill="rgb(205,98,0)" stroke="rgb(205,98,0)" points="99.33086970448494,265.1928162574768 74.16263511776924,231.90314608812332 135.61117635667324,251.28651702404022"></polygon><polygon fill="rgb(119,57,0)" stroke="rgb(119,57,0)" points="327.7277424931526,208.30741542577744 276.2503474652767,188.3228361904621 332.81463608145714,192.61998836696148"></polygon><polygon fill="rgb(36,51,67)" stroke="rgb(36,51,67)" points="129.09060968458652,284.20391964912415 99.33086970448494,265.1928162574768 121.13202466070652,259.94600915908813"></polygon><polygon fill="rgb(119,57,0)" stroke="rgb(119,57,0)" points="276.2503474652767,188.3228361904621 338.6193723678589,179.60253211855888 332.81463608145714,192.61998836696148"></polygon><polygon fill="rgb(205,98,0)" stroke="rgb(205,98,0)" points="135.61117635667324,251.28651702404022 121.13202466070652,259.94600915908813 99.33086970448494,265.1928162574768"></polygon><polygon fill="rgb(247,132,25)" stroke="rgb(247,132,25)" points="190.08909573219717,165.71285319328308 140.83955651521683,161.3337158560753 130.17398008704185,82.79566025733948"></polygon><polygon fill="rgb(247,132,25)" stroke="rgb(247,132,25)" points="130.17398008704185,82.79566025733948 225.55811085551977,88.03004050254822 190.08909573219717,165.71285319328308"></polygon><polygon fill="rgb(228,119,25)" stroke="rgb(228,119,25)" points="172.89576787501574,256.0772695541382 190.08909573219717,165.71285319328308 245.77264869213104,199.30087879300117"></polygon><polygon fill="rgb(228,119,25)" stroke="rgb(228,119,25)" points="245.77264869213104,199.30087879300117 250.66206477582455,253.66985553503036 172.89576787501574,256.0772695541382"></polygon><polygon fill="rgb(247,132,25)" stroke="rgb(247,132,25)" points="315.96367567777634,228.13356748223305 250.66206477582455,253.66985553503036 245.77264869213104,199.30087879300117"></polygon><polygon fill="rgb(119,57,0)" stroke="rgb(119,57,0)" points="338.6193723678589,179.60253211855888 276.2503474652767,188.3228361904621 269.8237181901932,136.4135617017746"></polygon><polygon fill="rgb(119,57,0)" stroke="rgb(119,57,0)" points="269.8237181901932,136.4135617017746 276.2503474652767,188.3228361904621 245.77264869213104,199.30087879300117"></polygon><polygon fill="rgb(247,132,25)" stroke="rgb(247,132,25)" points="110.44220650196075,359.17089343070984 100.82784217596054,290.73722219467163 129.09060968458652,284.20391964912415"></polygon><polygon fill="rgb(228,119,25)" stroke="rgb(228,119,25)" points="140.83955651521683,161.3337158560753 3.4981508255004883,70.8113465309143 130.17398008704185,82.79566025733948"></polygon><polygon fill="rgb(119,57,0)" stroke="rgb(119,57,0)" points="245.77264869213104,199.30087879300117 190.08909573219717,165.71285319328308 269.8237181901932,136.4135617017746"></polygon><polygon fill="rgb(119,57,0)" stroke="rgb(119,57,0)" points="315.96367567777634,228.13356748223305 327.7277424931526,208.30741542577744 333.38086983561516,215.19715404510498"></polygon><polygon fill="rgb(205,98,0)" stroke="rgb(205,98,0)" points="121.13202466070652,259.94600915908813 135.61117635667324,251.28651702404022 129.09060968458652,284.20391964912415"></polygon><polygon fill="rgb(247,132,25)" stroke="rgb(247,132,25)" points="256.78293865919113,305.23121309280396 212.93753422051668,307.33076763153076 250.66206477582455,253.66985553503036"></polygon><polygon fill="rgb(228,116,36)" stroke="rgb(228,116,36)" points="129.09060968458652,284.20391964912415 135.61117635667324,251.28651702404022 133.48221616446972,278.71078848838806"></polygon><polygon fill="rgb(119,57,0)" stroke="rgb(119,57,0)" points="70.08884131908417,121.65830898284912 1.2569876313209534,108.64329600334167 3.4981508255004883,70.8113465309143"></polygon><polygon fill="rgb(247,132,25)" stroke="rgb(247,132,25)" points="212.93753422051668,307.33076763153076 177.44034465029836,291.13281440734863 216.2613905966282,281.1830027103424"></polygon><polygon fill="rgb(228,116,36)" stroke="rgb(228,116,36)" points="250.66206477582455,253.66985553503036 212.93753422051668,307.33076763153076 216.2613905966282,281.1830027103424"></polygon><polygon fill="rgb(247,132,25)" stroke="rgb(247,132,25)" points="140.83955651521683,161.3337158560753 190.08909573219717,165.71285319328308 172.89576787501574,256.0772695541382"></polygon><polygon fill="rgb(247,132,25)" stroke="rgb(247,132,25)" points="172.89576787501574,256.0772695541382 135.61117635667324,251.28651702404022 140.83955651521683,161.3337158560753"></polygon><polygon fill="rgb(119,57,0)" stroke="rgb(119,57,0)" points="3.4981508255004883,70.8113465309143 140.83955651521683,161.3337158560753 70.08884131908417,121.65830898284912"></polygon><polygon fill="rgb(36,51,67)" stroke="rgb(36,51,67)" points="177.44034465029836,291.13281440734863 190.6855825856328,269.2053462266922 216.2613905966282,281.1830027103424"></polygon><polygon fill="rgb(119,57,0)" stroke="rgb(119,57,0)" points="327.7277424931526,208.30741542577744 332.81463608145714,192.61998836696148 339.74467515945435,201.67869810014963"></polygon><polygon fill="rgb(228,116,36)" stroke="rgb(228,116,36)" points="133.48221616446972,278.71078848838806 115.42282898724079,357.187655210495 129.09060968458652,284.20391964912415"></polygon><polygon fill="rgb(247,132,25)" stroke="rgb(247,132,25)" points="129.09060968458652,284.20391964912415 115.42282898724079,357.187655210495 110.44220650196075,359.17089343070984"></polygon><polygon fill="rgb(205,98,0)" stroke="rgb(205,98,0)" points="190.6855825856328,269.2053462266922 177.44034465029836,291.13281440734863 172.89576787501574,256.0772695541382"></polygon><polygon fill="rgb(247,132,25)" stroke="rgb(247,132,25)" points="133.48221616446972,278.71078848838806 135.61117635667324,251.28651702404022 172.89576787501574,256.0772695541382"></polygon><polygon fill="rgb(205,98,0)" stroke="rgb(205,98,0)" points="216.2613905966282,281.1830027103424 190.6855825856328,269.2053462266922 172.89576787501574,256.0772695541382"></polygon><polygon fill="rgb(205,98,0)" stroke="rgb(205,98,0)" points="172.89576787501574,256.0772695541382 250.66206477582455,253.66985553503036 216.2613905966282,281.1830027103424"></polygon><polygon fill="rgb(225,119,25)" stroke="rgb(225,119,25)" points="177.44034465029836,291.13281440734863 166.78858352079988,283.3945144414902 172.89576787501574,256.0772695541382"></polygon><polygon fill="rgb(247,132,25)" stroke="rgb(247,132,25)" points="177.44034465029836,291.13281440734863 212.93753422051668,307.33076763153076 151.63080848753452,366.48877787590027"></polygon><polygon fill="rgb(247,132,25)" stroke="rgb(247,132,25)" points="172.89576787501574,256.0772695541382 166.78858352079988,283.3945144414902 133.48221616446972,278.71078848838806"></polygon><polygon fill="rgb(119,57,0)" stroke="rgb(119,57,0)" points="344.8875043988228,187.41791930794716 332.81463608145714,192.61998836696148 338.6193723678589,179.60253211855888"></polygon><polygon fill="rgb(228,116,36)" stroke="rgb(228,116,36)" points="166.78858352079988,283.3945144414902 177.44034465029836,291.13281440734863 146.09794445335865,362.59877157211304"></polygon><polygon fill="rgb(247,132,25)" stroke="rgb(247,132,25)" points="151.63080848753452,366.48877787590027 146.09794445335865,362.59877157211304 177.44034465029836,291.13281440734863"></polygon><polygon fill="rgb(192,172,157)" stroke="rgb(192,172,157)" points="117.87013810873032,385.51793789863586 110.07995156943798,378.9831397533417 150.81335356086493,386.57852482795715"></polygon><polygon fill="rgb(192,172,157)" stroke="rgb(192,172,157)" points="150.81335356086493,386.57852482795715 158.91828179359436,393.26401376724243 117.87013810873032,385.51793789863586"></polygon><polygon fill="rgb(247,132,25)" stroke="rgb(247,132,25)" points="133.48221616446972,278.71078848838806 166.78858352079988,283.3945144414902 146.09794445335865,362.59877157211304"></polygon><polygon fill="rgb(247,132,25)" stroke="rgb(247,132,25)" points="146.09794445335865,362.59877157211304 115.42282898724079,357.187655210495 133.48221616446972,278.71078848838806"></polygon><polygon fill="rgb(225,119,25)" stroke="rgb(225,119,25)" points="331.7435551583767,88.05697345733643 190.08909573219717,165.71285319328308 225.55811085551977,88.03004050254822"></polygon><polygon fill="rgb(192,172,157)" stroke="rgb(192,172,157)" points="156.27113180607557,384.77804160118103 161.95013450086117,383.6672852039337 158.91828179359436,393.26401376724243"></polygon><polygon fill="rgb(192,172,157)" stroke="rgb(192,172,157)" points="158.91828179359436,393.26401376724243 150.81335356086493,386.57852482795715 156.27113180607557,384.77804160118103"></polygon><polygon fill="rgb(119,57,0)" stroke="rgb(119,57,0)" points="269.8237181901932,136.4135617017746 353.2764257490635,133.3502937555313 338.6193723678589,179.60253211855888"></polygon><polygon fill="rgb(119,57,0)" stroke="rgb(119,57,0)" points="269.8237181901932,136.4135617017746 190.08909573219717,165.71285319328308 331.7435551583767,88.05697345733643"></polygon><polygon fill="rgb(0,0,0)" stroke="rgb(0,0,0)" points="151.63080848753452,366.48877787590027 156.27113180607557,384.77804160118103 150.81335356086493,386.57852482795715"></polygon><polygon fill="rgb(0,0,0)" stroke="rgb(0,0,0)" points="150.81335356086493,386.57852482795715 110.07995156943798,378.9831397533417 107.29052169620991,372.10026812553406"></polygon><polygon fill="rgb(0,0,0)" stroke="rgb(0,0,0)" points="110.44220650196075,359.17089343070984 115.42282898724079,357.187655210495 110.32231912016869,369.76539373397827"></polygon><polygon fill="rgb(0,0,0)" stroke="rgb(0,0,0)" points="110.32231912016869,369.76539373397827 107.29052169620991,372.10026812553406 110.44220650196075,359.17089343070984"></polygon><polygon fill="rgb(119,57,0)" stroke="rgb(119,57,0)" points="331.7435551583767,88.05697345733643 353.2764257490635,133.3502937555313 269.8237181901932,136.4135617017746"></polygon><polygon fill="rgb(0,0,0)" stroke="rgb(0,0,0)" points="110.32231912016869,369.76539373397827 115.42282898724079,357.187655210495 146.09794445335865,362.59877157211304"></polygon><polygon fill="rgb(0,0,0)" stroke="rgb(0,0,0)" points="150.81335356086493,386.57852482795715 144.74855353683233,378.97928524017334 151.63080848753452,366.48877787590027"></polygon><polygon fill="rgb(0,0,0)" stroke="rgb(0,0,0)" points="107.29052169620991,372.10026812553406 144.74855353683233,378.97928524017334 150.81335356086493,386.57852482795715"></polygon><polygon fill="rgb(0,0,0)" stroke="rgb(0,0,0)" points="151.63080848753452,366.48877787590027 144.74855353683233,378.97928524017334 141.18501914292574,375.39370036125183"></polygon><polygon fill="rgb(0,0,0)" stroke="rgb(0,0,0)" points="141.18501914292574,375.39370036125183 146.09794445335865,362.59877157211304 151.63080848753452,366.48877787590027"></polygon><polygon fill="rgb(0,0,0)" stroke="rgb(0,0,0)" points="146.09794445335865,362.59877157211304 141.18501914292574,375.39370036125183 110.32231912016869,369.76539373397827"></polygon><polygon fill="rgb(0,0,0)" stroke="rgb(0,0,0)" points="141.18501914292574,375.39370036125183 144.74855353683233,378.97928524017334 107.29052169620991,372.10026812553406"></polygon><polygon fill="rgb(0,0,0)" stroke="rgb(0,0,0)" points="107.29052169620991,372.10026812553406 110.32231912016869,369.76539373397827 141.18501914292574,375.39370036125183"></polygon></svg>